<svg xmlns="http://www.w3.org/2000/svg" width="512" height="512" viewBox="0 0 512 512">
  <rect width="512" height="512" rx="112" fill="#245c42"/>
  <circle cx="256" cy="256" r="166" fill="#dcebcf"/>
  <g fill="none" stroke="#245c42" stroke-linecap="round" stroke-linejoin="round" stroke-width="24">
    <path d="M256 384V190"/>
    <path d="M256 253c-69 0-108-40-108-94 66 0 108 39 108 94Z"/>
    <path d="M256 205c0-54 41-93 108-93 0 55-42 93-108 93Z"/>
    <path d="M256 330c-55 0-91-30-91-79 55 0 91 31 91 79Z"/>
    <path d="M256 285c0-47 38-78 94-78 0 49-38 78-94 78Z"/>
  </g>
</svg>
